<svg xmlns="http://www.w3.org/2000/svg" xmlns:xlink="http://www.w3.org/1999/xlink" width="1640" zoomAndPan="magnify" viewBox="0 0 1230 242.999999" height="324" preserveAspectRatio="xMidYMid meet" version="1.0"><defs><g/><clipPath id="7a37011456"><path d="M 3 6 L 277 6 L 277 238 L 3 238 Z M 3 6 " clip-rule="nonzero"/></clipPath><clipPath id="70a7e18a4f"><path d="M 78.574219 16.445312 C 80.363281 19.542969 81.214844 22.925781 81.21875 26.265625 L 138.417969 39.667969 C 138.785156 38.835938 139.195312 38.011719 139.660156 37.203125 C 146.589844 25.207031 161.929688 21.097656 173.925781 28.023438 C 185.921875 34.949219 190.035156 50.289062 183.105469 62.289062 C 176.960938 72.933594 164.195312 77.359375 153.015625 73.390625 L 128.976562 115.023438 C 129.867188 115.953125 130.664062 117 131.335938 118.167969 C 135.066406 124.625 133.894531 132.566406 128.976562 137.6875 L 135.878906 149.640625 L 153.015625 179.324219 C 160.496094 176.664062 168.6875 177.773438 175.132812 181.988281 L 202.464844 153.421875 C 200.914062 151.570312 199.492188 149.570312 198.242188 147.402344 C 193.964844 140 192.207031 131.835938 192.679688 123.894531 C 191.046875 123.769531 189.417969 123.296875 187.910156 122.425781 C 182.503906 119.304688 180.652344 112.394531 183.773438 106.988281 C 186.894531 101.582031 193.804688 99.730469 199.210938 102.851562 C 199.347656 102.929688 199.472656 103.023438 199.605469 103.105469 C 203.089844 97.839844 207.808594 93.273438 213.648438 89.902344 C 218.878906 86.882812 224.484375 85.125 230.125 84.511719 L 230.125 51.808594 C 229.757812 51.644531 229.398438 51.464844 229.046875 51.261719 C 223.640625 48.140625 221.789062 41.226562 224.910156 35.824219 C 228.03125 30.417969 234.941406 28.566406 240.347656 31.6875 C 245.753906 34.804688 247.605469 41.71875 244.484375 47.125 C 243.238281 49.28125 241.386719 50.871094 239.269531 51.804688 L 239.269531 84.515625 C 252.136719 85.933594 264.183594 93.238281 271.152344 105.308594 C 282.777344 125.441406 275.878906 151.1875 255.746094 162.8125 C 240.550781 171.582031 222.171875 169.800781 209.066406 159.753906 L 181.742188 188.308594 C 182.226562 188.984375 182.683594 189.691406 183.109375 190.425781 C 190.035156 202.421875 185.925781 217.761719 173.925781 224.691406 C 161.929688 231.617188 146.589844 227.507812 139.660156 215.507812 C 133.515625 204.863281 136.066406 191.59375 145.09375 183.898438 L 121.058594 142.261719 C 114.160156 143.957031 106.699219 141.003906 102.96875 134.546875 C 102.296875 133.378906 101.789062 132.167969 101.425781 130.929688 L 53.351562 130.929688 C 52.054688 137.890625 47.847656 144.261719 41.234375 148.078125 C 41.0625 148.179688 40.886719 148.269531 40.710938 148.363281 L 62.578125 215.136719 C 64.125 215.292969 65.664062 215.765625 67.097656 216.59375 C 72.503906 219.714844 74.355469 226.628906 71.234375 232.03125 C 68.113281 237.4375 61.203125 239.289062 55.796875 236.167969 C 50.390625 233.046875 48.539062 226.136719 51.660156 220.730469 C 52.269531 219.671875 53.027344 218.753906 53.886719 217.980469 L 32.023438 151.21875 C 22.25 152.523438 12.207031 147.964844 6.96875 138.898438 C 0.0429688 126.898438 4.152344 111.558594 16.152344 104.632812 C 28.148438 97.707031 43.488281 101.816406 50.414062 113.8125 C 51.882812 116.355469 52.851562 119.050781 53.355469 121.78125 L 101.429688 121.78125 C 102.570312 117.867188 105.15625 114.371094 108.964844 112.171875 C 112.773438 109.972656 117.097656 109.480469 121.054688 110.453125 L 145.09375 68.816406 C 139.113281 63.71875 135.980469 56.179688 136.328125 48.570312 L 79.132812 35.171875 C 77.460938 38.523438 74.824219 41.441406 71.335938 43.457031 C 61.875 48.914062 49.785156 45.675781 44.324219 36.21875 C 38.863281 26.757812 42.101562 14.664062 51.5625 9.207031 C 61.019531 3.746094 73.113281 6.984375 78.574219 16.445312 Z M 111.5 216.59375 C 106.097656 213.472656 99.183594 215.324219 96.0625 220.730469 C 92.941406 226.136719 94.796875 233.046875 100.199219 236.167969 C 105.605469 239.289062 112.519531 237.4375 115.636719 232.03125 C 118.757812 226.625 116.90625 219.714844 111.5 216.59375 Z M 77.050781 89.210938 C 80.171875 83.804688 78.320312 76.894531 72.914062 73.773438 C 67.507812 70.652344 60.597656 72.503906 57.476562 77.910156 C 54.355469 83.316406 56.207031 90.226562 61.613281 93.347656 C 67.019531 96.46875 73.929688 94.617188 77.050781 89.210938 Z M 77.050781 89.210938 " clip-rule="nonzero"/></clipPath><linearGradient x1="211.509" gradientTransform="matrix(0, -0.546386, 0.546386, 0, 3.605466, 237.684042)" y1="510.899242" x2="211.509" gradientUnits="userSpaceOnUse" y2="-6.519998" id="46ba274e1b"><stop stop-opacity="1" stop-color="rgb(100%, 76.899719%, 49.798584%)" offset="0"/><stop stop-opacity="1" stop-color="rgb(99.958801%, 76.713562%, 49.627686%)" offset="0.03125"/><stop stop-opacity="1" stop-color="rgb(99.885559%, 76.383972%, 49.325562%)" offset="0.0390625"/><stop stop-opacity="1" stop-color="rgb(99.821472%, 76.098633%, 49.06311%)" offset="0.046875"/><stop stop-opacity="1" stop-color="rgb(99.758911%, 75.813293%, 48.799133%)" offset="0.0546875"/><stop stop-opacity="1" stop-color="rgb(99.69635%, 75.527954%, 48.536682%)" offset="0.0625"/><stop stop-opacity="1" stop-color="rgb(99.632263%, 75.242615%, 48.274231%)" offset="0.0703125"/><stop stop-opacity="1" stop-color="rgb(99.569702%, 74.957275%, 48.01178%)" offset="0.078125"/><stop stop-opacity="1" stop-color="rgb(99.507141%, 74.671936%, 47.749329%)" offset="0.0859375"/><stop stop-opacity="1" stop-color="rgb(99.443054%, 74.386597%, 47.485352%)" offset="0.09375"/><stop stop-opacity="1" stop-color="rgb(99.380493%, 74.101257%, 47.2229%)" offset="0.101562"/><stop stop-opacity="1" stop-color="rgb(99.317932%, 73.815918%, 46.960449%)" offset="0.109375"/><stop stop-opacity="1" stop-color="rgb(99.253845%, 73.530579%, 46.697998%)" offset="0.117188"/><stop stop-opacity="1" stop-color="rgb(99.191284%, 73.243713%, 46.435547%)" offset="0.125"/><stop stop-opacity="1" stop-color="rgb(99.128723%, 72.958374%, 46.17157%)" offset="0.132812"/><stop stop-opacity="1" stop-color="rgb(99.064636%, 72.673035%, 45.909119%)" offset="0.140625"/><stop stop-opacity="1" stop-color="rgb(99.002075%, 72.387695%, 45.646667%)" offset="0.148438"/><stop stop-opacity="1" stop-color="rgb(98.939514%, 72.102356%, 45.384216%)" offset="0.15625"/><stop stop-opacity="1" stop-color="rgb(98.875427%, 71.817017%, 45.121765%)" offset="0.164063"/><stop stop-opacity="1" stop-color="rgb(98.812866%, 71.531677%, 44.857788%)" offset="0.171875"/><stop stop-opacity="1" stop-color="rgb(98.750305%, 71.246338%, 44.595337%)" offset="0.179688"/><stop stop-opacity="1" stop-color="rgb(98.686218%, 70.960999%, 44.332886%)" offset="0.1875"/><stop stop-opacity="1" stop-color="rgb(98.623657%, 70.675659%, 44.070435%)" offset="0.195313"/><stop stop-opacity="1" stop-color="rgb(98.561096%, 70.39032%, 43.807983%)" offset="0.203125"/><stop stop-opacity="1" stop-color="rgb(98.497009%, 70.10498%, 43.544006%)" offset="0.210938"/><stop stop-opacity="1" stop-color="rgb(98.434448%, 69.819641%, 43.281555%)" offset="0.21875"/><stop stop-opacity="1" stop-color="rgb(98.371887%, 69.534302%, 43.019104%)" offset="0.226562"/><stop stop-opacity="1" stop-color="rgb(98.3078%, 69.248962%, 42.756653%)" offset="0.234375"/><stop stop-opacity="1" stop-color="rgb(98.245239%, 68.963623%, 42.494202%)" offset="0.242188"/><stop stop-opacity="1" stop-color="rgb(98.182678%, 68.678284%, 42.230225%)" offset="0.25"/><stop stop-opacity="1" stop-color="rgb(98.118591%, 68.392944%, 41.967773%)" offset="0.257813"/><stop stop-opacity="1" stop-color="rgb(98.05603%, 68.107605%, 41.705322%)" offset="0.265625"/><stop stop-opacity="1" stop-color="rgb(97.993469%, 67.822266%, 41.442871%)" offset="0.273438"/><stop stop-opacity="1" stop-color="rgb(97.929382%, 67.536926%, 41.18042%)" offset="0.28125"/><stop stop-opacity="1" stop-color="rgb(97.866821%, 67.251587%, 40.916443%)" offset="0.289062"/><stop stop-opacity="1" stop-color="rgb(97.80426%, 66.966248%, 40.653992%)" offset="0.296875"/><stop stop-opacity="1" stop-color="rgb(97.740173%, 66.680908%, 40.391541%)" offset="0.304687"/><stop stop-opacity="1" stop-color="rgb(97.677612%, 66.395569%, 40.129089%)" offset="0.3125"/><stop stop-opacity="1" stop-color="rgb(97.615051%, 66.110229%, 39.866638%)" offset="0.320312"/><stop stop-opacity="1" stop-color="rgb(97.55249%, 65.82489%, 39.602661%)" offset="0.328125"/><stop stop-opacity="1" stop-color="rgb(97.488403%, 65.539551%, 39.34021%)" offset="0.335938"/><stop stop-opacity="1" stop-color="rgb(97.425842%, 65.254211%, 39.077759%)" offset="0.34375"/><stop stop-opacity="1" stop-color="rgb(97.363281%, 64.968872%, 38.815308%)" offset="0.351562"/><stop stop-opacity="1" stop-color="rgb(97.299194%, 64.683533%, 38.552856%)" offset="0.359375"/><stop stop-opacity="1" stop-color="rgb(97.236633%, 64.396667%, 38.288879%)" offset="0.367188"/><stop stop-opacity="1" stop-color="rgb(97.174072%, 64.111328%, 38.026428%)" offset="0.375"/><stop stop-opacity="1" stop-color="rgb(97.109985%, 63.825989%, 37.763977%)" offset="0.382812"/><stop stop-opacity="1" stop-color="rgb(97.047424%, 63.540649%, 37.501526%)" offset="0.390625"/><stop stop-opacity="1" stop-color="rgb(96.984863%, 63.25531%, 37.239075%)" offset="0.398438"/><stop stop-opacity="1" stop-color="rgb(96.920776%, 62.969971%, 36.975098%)" offset="0.40625"/><stop stop-opacity="1" stop-color="rgb(96.858215%, 62.684631%, 36.712646%)" offset="0.414062"/><stop stop-opacity="1" stop-color="rgb(96.795654%, 62.399292%, 36.450195%)" offset="0.421875"/><stop stop-opacity="1" stop-color="rgb(96.731567%, 62.113953%, 36.187744%)" offset="0.429688"/><stop stop-opacity="1" stop-color="rgb(96.669006%, 61.828613%, 35.925293%)" offset="0.4375"/><stop stop-opacity="1" stop-color="rgb(96.606445%, 61.543274%, 35.661316%)" offset="0.445312"/><stop stop-opacity="1" stop-color="rgb(96.542358%, 61.257935%, 35.398865%)" offset="0.453125"/><stop stop-opacity="1" stop-color="rgb(96.479797%, 60.972595%, 35.136414%)" offset="0.460938"/><stop stop-opacity="1" stop-color="rgb(96.417236%, 60.687256%, 34.873962%)" offset="0.46875"/><stop stop-opacity="1" stop-color="rgb(96.353149%, 60.401917%, 34.611511%)" offset="0.476562"/><stop stop-opacity="1" stop-color="rgb(96.290588%, 60.116577%, 34.347534%)" offset="0.484375"/><stop stop-opacity="1" stop-color="rgb(96.228027%, 59.831238%, 34.085083%)" offset="0.492188"/><stop stop-opacity="1" stop-color="rgb(96.16394%, 59.545898%, 33.822632%)" offset="0.5"/><stop stop-opacity="1" stop-color="rgb(96.101379%, 59.260559%, 33.560181%)" offset="0.507813"/><stop stop-opacity="1" stop-color="rgb(96.038818%, 58.97522%, 33.297729%)" offset="0.515625"/><stop stop-opacity="1" stop-color="rgb(95.974731%, 58.68988%, 33.035278%)" offset="0.523438"/><stop stop-opacity="1" stop-color="rgb(95.91217%, 58.404541%, 32.771301%)" offset="0.53125"/><stop stop-opacity="1" stop-color="rgb(95.849609%, 58.119202%, 32.50885%)" offset="0.539063"/><stop stop-opacity="1" stop-color="rgb(95.785522%, 57.833862%, 32.246399%)" offset="0.546875"/><stop stop-opacity="1" stop-color="rgb(95.722961%, 57.548523%, 31.983948%)" offset="0.554688"/><stop stop-opacity="1" stop-color="rgb(95.6604%, 57.263184%, 31.721497%)" offset="0.5625"/><stop stop-opacity="1" stop-color="rgb(95.596313%, 56.977844%, 31.45752%)" offset="0.570312"/><stop stop-opacity="1" stop-color="rgb(95.533752%, 56.692505%, 31.195068%)" offset="0.578125"/><stop stop-opacity="1" stop-color="rgb(95.471191%, 56.407166%, 30.932617%)" offset="0.585938"/><stop stop-opacity="1" stop-color="rgb(95.407104%, 56.121826%, 30.670166%)" offset="0.59375"/><stop stop-opacity="1" stop-color="rgb(95.344543%, 55.834961%, 30.407715%)" offset="0.601563"/><stop stop-opacity="1" stop-color="rgb(95.281982%, 55.549622%, 30.143738%)" offset="0.609375"/><stop stop-opacity="1" stop-color="rgb(95.217896%, 55.264282%, 29.881287%)" offset="0.617188"/><stop stop-opacity="1" stop-color="rgb(95.155334%, 54.978943%, 29.618835%)" offset="0.625"/><stop stop-opacity="1" stop-color="rgb(95.092773%, 54.693604%, 29.356384%)" offset="0.632813"/><stop stop-opacity="1" stop-color="rgb(95.028687%, 54.408264%, 29.093933%)" offset="0.640625"/><stop stop-opacity="1" stop-color="rgb(94.966125%, 54.122925%, 28.829956%)" offset="0.648438"/><stop stop-opacity="1" stop-color="rgb(94.903564%, 53.837585%, 28.567505%)" offset="0.65625"/><stop stop-opacity="1" stop-color="rgb(94.839478%, 53.552246%, 28.305054%)" offset="0.664063"/><stop stop-opacity="1" stop-color="rgb(94.776917%, 53.266907%, 28.042603%)" offset="0.671875"/><stop stop-opacity="1" stop-color="rgb(94.714355%, 52.981567%, 27.780151%)" offset="0.679688"/><stop stop-opacity="1" stop-color="rgb(94.650269%, 52.696228%, 27.516174%)" offset="0.6875"/><stop stop-opacity="1" stop-color="rgb(94.587708%, 52.410889%, 27.253723%)" offset="0.695313"/><stop stop-opacity="1" stop-color="rgb(94.525146%, 52.125549%, 26.991272%)" offset="0.703125"/><stop stop-opacity="1" stop-color="rgb(94.46106%, 51.84021%, 26.728821%)" offset="0.710938"/><stop stop-opacity="1" stop-color="rgb(94.398499%, 51.554871%, 26.46637%)" offset="0.71875"/><stop stop-opacity="1" stop-color="rgb(94.335938%, 51.269531%, 26.202393%)" offset="0.726562"/><stop stop-opacity="1" stop-color="rgb(94.271851%, 50.984192%, 25.939941%)" offset="0.734375"/><stop stop-opacity="1" stop-color="rgb(94.20929%, 50.698853%, 25.67749%)" offset="0.742188"/><stop stop-opacity="1" stop-color="rgb(94.146729%, 50.413513%, 25.415039%)" offset="0.75"/><stop stop-opacity="1" stop-color="rgb(94.084167%, 50.128174%, 25.152588%)" offset="0.757813"/><stop stop-opacity="1" stop-color="rgb(94.020081%, 49.842834%, 24.888611%)" offset="0.765625"/><stop stop-opacity="1" stop-color="rgb(93.95752%, 49.557495%, 24.62616%)" offset="0.773438"/><stop stop-opacity="1" stop-color="rgb(93.894958%, 49.272156%, 24.363708%)" offset="0.78125"/><stop stop-opacity="1" stop-color="rgb(93.830872%, 48.986816%, 24.101257%)" offset="0.789062"/><stop stop-opacity="1" stop-color="rgb(93.768311%, 48.701477%, 23.838806%)" offset="0.796875"/><stop stop-opacity="1" stop-color="rgb(93.70575%, 48.416138%, 23.574829%)" offset="0.804688"/><stop stop-opacity="1" stop-color="rgb(93.641663%, 48.130798%, 23.312378%)" offset="0.8125"/><stop stop-opacity="1" stop-color="rgb(93.579102%, 47.845459%, 23.049927%)" offset="0.820312"/><stop stop-opacity="1" stop-color="rgb(93.516541%, 47.56012%, 22.787476%)" offset="0.828125"/><stop stop-opacity="1" stop-color="rgb(93.452454%, 47.27478%, 22.525024%)" offset="0.835937"/><stop stop-opacity="1" stop-color="rgb(93.389893%, 46.987915%, 22.261047%)" offset="0.84375"/><stop stop-opacity="1" stop-color="rgb(93.327332%, 46.702576%, 21.998596%)" offset="0.851563"/><stop stop-opacity="1" stop-color="rgb(93.263245%, 46.417236%, 21.736145%)" offset="0.859375"/><stop stop-opacity="1" stop-color="rgb(93.200684%, 46.131897%, 21.473694%)" offset="0.867188"/><stop stop-opacity="1" stop-color="rgb(93.138123%, 45.846558%, 21.211243%)" offset="0.875"/><stop stop-opacity="1" stop-color="rgb(93.074036%, 45.561218%, 20.947266%)" offset="0.882812"/><stop stop-opacity="1" stop-color="rgb(93.011475%, 45.275879%, 20.684814%)" offset="0.890625"/><stop stop-opacity="1" stop-color="rgb(92.948914%, 44.99054%, 20.422363%)" offset="0.898438"/><stop stop-opacity="1" stop-color="rgb(92.884827%, 44.7052%, 20.159912%)" offset="0.90625"/><stop stop-opacity="1" stop-color="rgb(92.822266%, 44.419861%, 19.897461%)" offset="0.914063"/><stop stop-opacity="1" stop-color="rgb(92.759705%, 44.134521%, 19.633484%)" offset="0.921875"/><stop stop-opacity="1" stop-color="rgb(92.695618%, 43.849182%, 19.371033%)" offset="0.929688"/><stop stop-opacity="1" stop-color="rgb(92.633057%, 43.563843%, 19.108582%)" offset="0.9375"/><stop stop-opacity="1" stop-color="rgb(92.570496%, 43.278503%, 18.84613%)" offset="0.945312"/><stop stop-opacity="1" stop-color="rgb(92.506409%, 42.993164%, 18.583679%)" offset="0.953125"/><stop stop-opacity="1" stop-color="rgb(92.443848%, 42.707825%, 18.319702%)" offset="0.960938"/><stop stop-opacity="1" stop-color="rgb(92.381287%, 42.422485%, 18.057251%)" offset="0.96875"/><stop stop-opacity="1" stop-color="rgb(92.3172%, 42.137146%, 17.7948%)" offset="0.976563"/><stop stop-opacity="1" stop-color="rgb(92.254639%, 41.851807%, 17.532349%)" offset="0.984375"/><stop stop-opacity="1" stop-color="rgb(92.211914%, 41.653442%, 17.349243%)" offset="1"/></linearGradient></defs><g clip-path="url(#7a37011456)"><g clip-path="url(#70a7e18a4f)"><path fill="url(#46ba274e1b)" d="M 0.0429688 239.269531 L 282.753906 239.269531 L 282.753906 3.769531 L 0.0429688 3.769531 Z M 0.0429688 239.269531 " fill-rule="nonzero"/></g></g><g fill="#eb6a2c" fill-opacity="1"><g transform="translate(318.441225, 122.807895)"><g><path d="M 10.203125 0 L 10.203125 -97.875 L 45.765625 -97.875 C 56.429688 -97.875 65.347656 -95.691406 72.515625 -91.328125 C 79.679688 -86.960938 85.054688 -81.082031 88.640625 -73.6875 C 92.222656 -66.289062 94.015625 -58.085938 94.015625 -49.078125 C 94.015625 -39.148438 92.039062 -30.507812 88.09375 -23.15625 C 84.144531 -15.800781 78.5625 -10.101562 71.34375 -6.0625 C 64.125 -2.019531 55.597656 0 45.765625 0 Z M 74.859375 -49.078125 C 74.859375 -55.421875 73.707031 -61.003906 71.40625 -65.828125 C 69.113281 -70.648438 65.804688 -74.414062 61.484375 -77.125 C 57.160156 -79.84375 51.921875 -81.203125 45.765625 -81.203125 L 29.21875 -81.203125 L 29.21875 -16.6875 L 45.765625 -16.6875 C 52.015625 -16.6875 57.300781 -18.085938 61.625 -20.890625 C 65.945312 -23.691406 69.234375 -27.550781 71.484375 -32.46875 C 73.734375 -37.382812 74.859375 -42.921875 74.859375 -49.078125 Z M 74.859375 -49.078125 "/></g></g></g><g fill="#eb6a2c" fill-opacity="1"><g transform="translate(417.144142, 122.807895)"><g><path d="M 78.171875 -16.6875 L 78.171875 0 L 10.203125 0 L 10.203125 -97.875 L 76.921875 -97.875 L 76.921875 -81.203125 L 29.21875 -81.203125 L 29.21875 -57.625 L 70.453125 -57.625 L 70.453125 -42.1875 L 29.21875 -42.1875 L 29.21875 -16.6875 Z M 78.171875 -16.6875 "/></g></g></g><g fill="#eb6a2c" fill-opacity="1"><g transform="translate(499.993924, 122.807895)"><g><path d="M 68.515625 -72.234375 C 67.867188 -72.878906 66.695312 -73.753906 65 -74.859375 C 63.300781 -75.960938 61.234375 -77.019531 58.796875 -78.03125 C 56.359375 -79.039062 53.710938 -79.9375 50.859375 -80.71875 C 48.015625 -81.5 45.125 -81.890625 42.1875 -81.890625 C 37.039062 -81.890625 33.15625 -80.921875 30.53125 -78.984375 C 27.914062 -77.054688 26.609375 -74.347656 26.609375 -70.859375 C 26.609375 -68.191406 27.429688 -66.078125 29.078125 -64.515625 C 30.734375 -62.953125 33.21875 -61.617188 36.53125 -60.515625 C 39.84375 -59.410156 43.976562 -58.21875 48.9375 -56.9375 C 55.375 -55.375 60.957031 -53.46875 65.6875 -51.21875 C 70.425781 -48.96875 74.054688 -46.023438 76.578125 -42.390625 C 79.109375 -38.765625 80.375 -33.960938 80.375 -27.984375 C 80.375 -22.742188 79.40625 -18.257812 77.46875 -14.53125 C 75.539062 -10.8125 72.875 -7.800781 69.46875 -5.5 C 66.070312 -3.207031 62.210938 -1.53125 57.890625 -0.46875 C 53.578125 0.582031 48.984375 1.109375 44.109375 1.109375 C 39.242188 1.109375 34.375 0.601562 29.5 -0.40625 C 24.632812 -1.425781 19.945312 -2.875 15.4375 -4.75 C 10.9375 -6.632812 6.800781 -8.910156 3.03125 -11.578125 L 11.4375 -27.984375 C 12.269531 -27.160156 13.742188 -26.082031 15.859375 -24.75 C 17.972656 -23.414062 20.546875 -22.082031 23.578125 -20.75 C 26.609375 -19.414062 29.914062 -18.285156 33.5 -17.359375 C 37.082031 -16.441406 40.710938 -15.984375 44.390625 -15.984375 C 49.535156 -15.984375 53.441406 -16.859375 56.109375 -18.609375 C 58.773438 -20.359375 60.109375 -22.84375 60.109375 -26.0625 C 60.109375 -29 59.050781 -31.296875 56.9375 -32.953125 C 54.820312 -34.609375 51.878906 -36.054688 48.109375 -37.296875 C 44.335938 -38.535156 39.878906 -39.890625 34.734375 -41.359375 C 28.578125 -43.109375 23.429688 -45.0625 19.296875 -47.21875 C 15.160156 -49.375 12.082031 -52.101562 10.0625 -55.40625 C 8.039062 -58.71875 7.03125 -62.859375 7.03125 -67.828125 C 7.03125 -74.535156 8.613281 -80.160156 11.78125 -84.703125 C 14.957031 -89.253906 19.253906 -92.703125 24.671875 -95.046875 C 30.097656 -97.390625 36.117188 -98.5625 42.734375 -98.5625 C 47.328125 -98.5625 51.671875 -98.054688 55.765625 -97.046875 C 59.859375 -96.035156 63.695312 -94.703125 67.28125 -93.046875 C 70.863281 -91.398438 74.078125 -89.609375 76.921875 -87.671875 Z M 68.515625 -72.234375 "/></g></g></g><g fill="#eb6a2c" fill-opacity="1"><g transform="translate(584.497956, 122.807895)"><g><path d="M 36.8125 -97.875 L 56.109375 -97.875 L 92.09375 0 L 72.515625 0 L 63.421875 -24.40625 L 29.21875 -24.40625 L 20.265625 0 L 0.6875 0 Z M 59.96875 -37.78125 L 46.453125 -78.171875 L 32.390625 -37.78125 Z M 59.96875 -37.78125 "/></g></g></g><g fill="#eb6a2c" fill-opacity="1"><g transform="translate(677.135333, 122.807895)"><g><path d="M 10.203125 0 L 10.203125 -97.875 L 53.484375 -97.875 C 57.992188 -97.875 62.15625 -96.953125 65.96875 -95.109375 C 69.78125 -93.273438 73.085938 -90.796875 75.890625 -87.671875 C 78.691406 -84.546875 80.847656 -81.050781 82.359375 -77.1875 C 83.878906 -73.332031 84.640625 -69.382812 84.640625 -65.34375 C 84.640625 -61.207031 83.925781 -57.234375 82.5 -53.421875 C 81.082031 -49.609375 79.039062 -46.273438 76.375 -43.421875 C 73.707031 -40.578125 70.582031 -38.375 67 -36.8125 L 89.328125 0 L 68.375 0 L 48.25 -32.8125 L 29.21875 -32.8125 L 29.21875 0 Z M 29.21875 -49.484375 L 53.078125 -49.484375 C 55.460938 -49.484375 57.570312 -50.195312 59.40625 -51.625 C 61.25 -53.050781 62.722656 -54.957031 63.828125 -57.34375 C 64.929688 -59.738281 65.484375 -62.40625 65.484375 -65.34375 C 65.484375 -68.46875 64.835938 -71.203125 63.546875 -73.546875 C 62.265625 -75.890625 60.632812 -77.75 58.65625 -79.125 C 56.675781 -80.507812 54.539062 -81.203125 52.25 -81.203125 L 29.21875 -81.203125 Z M 29.21875 -49.484375 "/></g></g></g><g fill="#eb6a2c" fill-opacity="1"><g transform="translate(768.807721, 122.807895)"><g><path d="M 10.203125 0 L 10.203125 -97.875 L 53.484375 -97.875 C 57.992188 -97.875 62.15625 -96.953125 65.96875 -95.109375 C 69.78125 -93.273438 73.085938 -90.796875 75.890625 -87.671875 C 78.691406 -84.546875 80.847656 -81.050781 82.359375 -77.1875 C 83.878906 -73.332031 84.640625 -69.382812 84.640625 -65.34375 C 84.640625 -61.207031 83.925781 -57.234375 82.5 -53.421875 C 81.082031 -49.609375 79.039062 -46.273438 76.375 -43.421875 C 73.707031 -40.578125 70.582031 -38.375 67 -36.8125 L 89.328125 0 L 68.375 0 L 48.25 -32.8125 L 29.21875 -32.8125 L 29.21875 0 Z M 29.21875 -49.484375 L 53.078125 -49.484375 C 55.460938 -49.484375 57.570312 -50.195312 59.40625 -51.625 C 61.25 -53.050781 62.722656 -54.957031 63.828125 -57.34375 C 64.929688 -59.738281 65.484375 -62.40625 65.484375 -65.34375 C 65.484375 -68.46875 64.835938 -71.203125 63.546875 -73.546875 C 62.265625 -75.890625 60.632812 -77.75 58.65625 -79.125 C 56.675781 -80.507812 54.539062 -81.203125 52.25 -81.203125 L 29.21875 -81.203125 Z M 29.21875 -49.484375 "/></g></g></g><g fill="#eb6a2c" fill-opacity="1"><g transform="translate(860.480088, 122.807895)"><g><path d="M 51.96875 0.6875 C 44.800781 0.6875 38.300781 -0.6875 32.46875 -3.4375 C 26.632812 -6.195312 21.625 -9.941406 17.4375 -14.671875 C 13.257812 -19.410156 10.019531 -24.742188 7.71875 -30.671875 C 5.425781 -36.597656 4.28125 -42.6875 4.28125 -48.9375 C 4.28125 -55.46875 5.492188 -61.695312 7.921875 -67.625 C 10.359375 -73.550781 13.710938 -78.832031 17.984375 -83.46875 C 22.265625 -88.113281 27.320312 -91.789062 33.15625 -94.5 C 38.988281 -97.207031 45.398438 -98.5625 52.390625 -98.5625 C 59.460938 -98.5625 65.914062 -97.132812 71.75 -94.28125 C 77.59375 -91.4375 82.582031 -87.625 86.71875 -82.84375 C 90.851562 -78.070312 94.066406 -72.742188 96.359375 -66.859375 C 98.660156 -60.972656 99.8125 -54.910156 99.8125 -48.671875 C 99.8125 -42.234375 98.613281 -36.050781 96.21875 -30.125 C 93.832031 -24.195312 90.503906 -18.910156 86.234375 -14.265625 C 81.960938 -9.628906 76.90625 -5.976562 71.0625 -3.3125 C 65.226562 -0.644531 58.863281 0.6875 51.96875 0.6875 Z M 23.578125 -48.9375 C 23.578125 -44.707031 24.21875 -40.617188 25.5 -36.671875 C 26.789062 -32.722656 28.648438 -29.207031 31.078125 -26.125 C 33.515625 -23.039062 36.503906 -20.601562 40.046875 -18.8125 C 43.585938 -17.019531 47.609375 -16.125 52.109375 -16.125 C 56.703125 -16.125 60.789062 -17.066406 64.375 -18.953125 C 67.957031 -20.835938 70.941406 -23.363281 73.328125 -26.53125 C 75.722656 -29.707031 77.539062 -33.25 78.78125 -37.15625 C 80.019531 -41.0625 80.640625 -44.988281 80.640625 -48.9375 C 80.640625 -53.164062 79.972656 -57.234375 78.640625 -61.140625 C 77.316406 -65.046875 75.4375 -68.535156 73 -71.609375 C 70.5625 -74.691406 67.570312 -77.128906 64.03125 -78.921875 C 60.5 -80.710938 56.523438 -81.609375 52.109375 -81.609375 C 47.421875 -81.609375 43.304688 -80.664062 39.765625 -78.78125 C 36.234375 -76.894531 33.269531 -74.390625 30.875 -71.265625 C 28.488281 -68.148438 26.675781 -64.660156 25.4375 -60.796875 C 24.195312 -56.929688 23.578125 -52.976562 23.578125 -48.9375 Z M 23.578125 -48.9375 "/></g></g></g><g fill="#eb6a2c" fill-opacity="1"><g transform="translate(964.697137, 122.807895)"><g><path d="M 10.203125 0 L 10.203125 -97.875 L 29.21875 -97.875 L 29.21875 -16.6875 L 79.125 -16.6875 L 79.125 0 Z M 10.203125 0 "/></g></g></g><g fill="#eb6a2c" fill-opacity="1"><g transform="translate(1045.203434, 122.807895)"><g><path d="M 10.203125 0 L 10.203125 -97.875 L 29.21875 -97.875 L 29.21875 -16.6875 L 79.125 -16.6875 L 79.125 0 Z M 10.203125 0 "/></g></g></g><g fill="#eb6a2c" fill-opacity="1"><g transform="translate(1125.709731, 122.807895)"><g><path d="M 51.96875 0.6875 C 44.800781 0.6875 38.300781 -0.6875 32.46875 -3.4375 C 26.632812 -6.195312 21.625 -9.941406 17.4375 -14.671875 C 13.257812 -19.410156 10.019531 -24.742188 7.71875 -30.671875 C 5.425781 -36.597656 4.28125 -42.6875 4.28125 -48.9375 C 4.28125 -55.46875 5.492188 -61.695312 7.921875 -67.625 C 10.359375 -73.550781 13.710938 -78.832031 17.984375 -83.46875 C 22.265625 -88.113281 27.320312 -91.789062 33.15625 -94.5 C 38.988281 -97.207031 45.398438 -98.5625 52.390625 -98.5625 C 59.460938 -98.5625 65.914062 -97.132812 71.75 -94.28125 C 77.59375 -91.4375 82.582031 -87.625 86.71875 -82.84375 C 90.851562 -78.070312 94.066406 -72.742188 96.359375 -66.859375 C 98.660156 -60.972656 99.8125 -54.910156 99.8125 -48.671875 C 99.8125 -42.234375 98.613281 -36.050781 96.21875 -30.125 C 93.832031 -24.195312 90.503906 -18.910156 86.234375 -14.265625 C 81.960938 -9.628906 76.90625 -5.976562 71.0625 -3.3125 C 65.226562 -0.644531 58.863281 0.6875 51.96875 0.6875 Z M 23.578125 -48.9375 C 23.578125 -44.707031 24.21875 -40.617188 25.5 -36.671875 C 26.789062 -32.722656 28.648438 -29.207031 31.078125 -26.125 C 33.515625 -23.039062 36.503906 -20.601562 40.046875 -18.8125 C 43.585938 -17.019531 47.609375 -16.125 52.109375 -16.125 C 56.703125 -16.125 60.789062 -17.066406 64.375 -18.953125 C 67.957031 -20.835938 70.941406 -23.363281 73.328125 -26.53125 C 75.722656 -29.707031 77.539062 -33.25 78.78125 -37.15625 C 80.019531 -41.0625 80.640625 -44.988281 80.640625 -48.9375 C 80.640625 -53.164062 79.972656 -57.234375 78.640625 -61.140625 C 77.316406 -65.046875 75.4375 -68.535156 73 -71.609375 C 70.5625 -74.691406 67.570312 -77.128906 64.03125 -78.921875 C 60.5 -80.710938 56.523438 -81.609375 52.109375 -81.609375 C 47.421875 -81.609375 43.304688 -80.664062 39.765625 -78.78125 C 36.234375 -76.894531 33.269531 -74.390625 30.875 -71.265625 C 28.488281 -68.148438 26.675781 -64.660156 25.4375 -60.796875 C 24.195312 -56.929688 23.578125 -52.976562 23.578125 -48.9375 Z M 23.578125 -48.9375 "/></g></g></g><g fill="#504e4b" fill-opacity="1"><g transform="translate(578.425484, 217.112497)"><g><path d="M 6.515625 0 L 6.515625 -62.484375 L 48.484375 -62.484375 L 48.484375 -51.828125 L 18.65625 -51.828125 L 18.65625 -35.734375 L 43.46875 -35.734375 L 43.46875 -25.875 L 18.65625 -25.875 L 18.65625 0 Z M 6.515625 0 "/></g></g></g><g fill="#504e4b" fill-opacity="1"><g transform="translate(628.932621, 217.112497)"><g><path d="M 6.515625 0 L 6.515625 -62.484375 L 18.65625 -62.484375 L 18.65625 -10.640625 L 50.515625 -10.640625 L 50.515625 0 Z M 6.515625 0 "/></g></g></g><g fill="#504e4b" fill-opacity="1"><g transform="translate(680.319666, 217.112497)"><g><path d="M 33.171875 0.4375 C 28.597656 0.4375 24.445312 -0.441406 20.71875 -2.203125 C 17 -3.960938 13.800781 -6.351562 11.125 -9.375 C 8.457031 -12.394531 6.390625 -15.796875 4.921875 -19.578125 C 3.460938 -23.359375 2.734375 -27.242188 2.734375 -31.234375 C 2.734375 -35.398438 3.507812 -39.375 5.0625 -43.15625 C 6.613281 -46.945312 8.753906 -50.320312 11.484375 -53.28125 C 14.210938 -56.25 17.4375 -58.597656 21.15625 -60.328125 C 24.882812 -62.054688 28.976562 -62.921875 33.4375 -62.921875 C 37.957031 -62.921875 42.078125 -62.007812 45.796875 -60.1875 C 49.523438 -58.375 52.707031 -55.941406 55.34375 -52.890625 C 57.988281 -49.835938 60.046875 -46.429688 61.515625 -42.671875 C 62.984375 -38.921875 63.71875 -35.050781 63.71875 -31.0625 C 63.71875 -26.957031 62.953125 -23.007812 61.421875 -19.21875 C 59.898438 -15.4375 57.773438 -12.0625 55.046875 -9.09375 C 52.316406 -6.132812 49.085938 -3.804688 45.359375 -2.109375 C 41.640625 -0.410156 37.578125 0.4375 33.171875 0.4375 Z M 15.046875 -31.234375 C 15.046875 -28.535156 15.457031 -25.925781 16.28125 -23.40625 C 17.101562 -20.882812 18.289062 -18.640625 19.84375 -16.671875 C 21.394531 -14.710938 23.300781 -13.160156 25.5625 -12.015625 C 27.820312 -10.867188 30.390625 -10.296875 33.265625 -10.296875 C 36.191406 -10.296875 38.800781 -10.894531 41.09375 -12.09375 C 43.382812 -13.300781 45.289062 -14.914062 46.8125 -16.9375 C 48.34375 -18.957031 49.503906 -21.210938 50.296875 -23.703125 C 51.085938 -26.203125 51.484375 -28.710938 51.484375 -31.234375 C 51.484375 -33.929688 51.054688 -36.523438 50.203125 -39.015625 C 49.347656 -41.515625 48.144531 -43.742188 46.59375 -45.703125 C 45.039062 -47.671875 43.132812 -49.226562 40.875 -50.375 C 38.613281 -51.519531 36.078125 -52.09375 33.265625 -52.09375 C 30.273438 -52.09375 27.648438 -51.488281 25.390625 -50.28125 C 23.128906 -49.082031 21.234375 -47.484375 19.703125 -45.484375 C 18.179688 -43.492188 17.023438 -41.265625 16.234375 -38.796875 C 15.441406 -36.335938 15.046875 -33.816406 15.046875 -31.234375 Z M 15.046875 -31.234375 "/></g></g></g><g fill="#504e4b" fill-opacity="1"><g transform="translate(746.841253, 217.112497)"><g><path d="M 6.515625 0 L 6.515625 -62.484375 L 34.140625 -62.484375 C 37.015625 -62.484375 39.671875 -61.894531 42.109375 -60.71875 C 44.546875 -59.539062 46.65625 -57.953125 48.4375 -55.953125 C 50.226562 -53.960938 51.609375 -51.734375 52.578125 -49.265625 C 53.546875 -46.804688 54.03125 -44.289062 54.03125 -41.71875 C 54.03125 -39.070312 53.570312 -36.53125 52.65625 -34.09375 C 51.75 -31.664062 50.445312 -29.539062 48.75 -27.71875 C 47.050781 -25.894531 45.054688 -24.488281 42.765625 -23.5 L 57.03125 0 L 43.640625 0 L 30.796875 -20.9375 L 18.65625 -20.9375 L 18.65625 0 Z M 18.65625 -31.59375 L 33.875 -31.59375 C 35.40625 -31.59375 36.753906 -32.046875 37.921875 -32.953125 C 39.097656 -33.859375 40.035156 -35.070312 40.734375 -36.59375 C 41.441406 -38.125 41.796875 -39.832031 41.796875 -41.71875 C 41.796875 -43.707031 41.382812 -45.445312 40.5625 -46.9375 C 39.75 -48.4375 38.707031 -49.625 37.4375 -50.5 C 36.175781 -51.382812 34.816406 -51.828125 33.359375 -51.828125 L 18.65625 -51.828125 Z M 18.65625 -31.59375 "/></g></g></g><g fill="#504e4b" fill-opacity="1"><g transform="translate(805.355614, 217.112497)"><g><path d="M 6.515625 0 L 6.515625 -62.484375 L 18.65625 -62.484375 L 18.65625 0 Z M 6.515625 0 "/></g></g></g><g fill="#504e4b" fill-opacity="1"><g transform="translate(830.521199, 217.112497)"><g><path d="M 6.515625 0 L 6.515625 -62.484375 L 29.21875 -62.484375 C 36.019531 -62.484375 41.707031 -61.085938 46.28125 -58.296875 C 50.863281 -55.515625 54.296875 -51.757812 56.578125 -47.03125 C 58.867188 -42.3125 60.015625 -37.078125 60.015625 -31.328125 C 60.015625 -24.992188 58.753906 -19.476562 56.234375 -14.78125 C 53.710938 -10.09375 50.144531 -6.457031 45.53125 -3.875 C 40.925781 -1.289062 35.488281 0 29.21875 0 Z M 47.78125 -31.328125 C 47.78125 -35.378906 47.046875 -38.941406 45.578125 -42.015625 C 44.117188 -45.097656 42.007812 -47.503906 39.25 -49.234375 C 36.488281 -50.960938 33.144531 -51.828125 29.21875 -51.828125 L 18.65625 -51.828125 L 18.65625 -10.640625 L 29.21875 -10.640625 C 33.207031 -10.640625 36.578125 -11.535156 39.328125 -13.328125 C 42.085938 -15.117188 44.1875 -17.582031 45.625 -20.71875 C 47.0625 -23.863281 47.78125 -27.398438 47.78125 -31.328125 Z M 47.78125 -31.328125 "/></g></g></g><g fill="#504e4b" fill-opacity="1"><g transform="translate(893.523137, 217.112497)"><g><path d="M 23.5 -62.484375 L 35.8125 -62.484375 L 58.78125 0 L 46.28125 0 L 40.484375 -15.578125 L 18.65625 -15.578125 L 12.9375 0 L 0.4375 0 Z M 38.28125 -24.109375 L 29.65625 -49.890625 L 20.6875 -24.109375 Z M 38.28125 -24.109375 "/></g></g></g></svg>